<svg width="1032" height="252" viewBox="0 0 1032 252" fill="none" xmlns="http://www.w3.org/2000/svg">
<path d="M458.136 111.273H426.091C425.864 108.621 425.258 106.216 424.273 104.057C423.326 101.898 422 100.042 420.295 98.4886C418.629 96.8977 416.602 95.6856 414.216 94.8523C411.83 93.9811 409.121 93.5455 406.091 93.5455C400.788 93.5455 396.299 94.8333 392.625 97.4091C388.989 99.9848 386.223 103.678 384.33 108.489C382.473 113.299 381.545 119.076 381.545 125.818C381.545 132.939 382.492 138.905 384.386 143.716C386.318 148.489 389.102 152.087 392.739 154.511C396.375 156.898 400.75 158.091 405.864 158.091C408.78 158.091 411.394 157.731 413.705 157.011C416.015 156.254 418.023 155.174 419.727 153.773C421.432 152.371 422.814 150.686 423.875 148.716C424.973 146.708 425.712 144.455 426.091 141.955L458.136 142.182C457.758 147.106 456.375 152.125 453.989 157.239C451.602 162.314 448.212 167.011 443.818 171.33C439.462 175.61 434.064 179.057 427.625 181.67C421.186 184.284 413.705 185.591 405.182 185.591C394.5 185.591 384.917 183.299 376.432 178.716C367.985 174.133 361.299 167.39 356.375 158.489C351.489 149.587 349.045 138.697 349.045 125.818C349.045 112.864 351.545 101.955 356.545 93.0909C361.545 84.1894 368.288 77.4659 376.773 72.9205C385.258 68.3371 394.727 66.0455 405.182 66.0455C412.53 66.0455 419.292 67.0492 425.466 69.0568C431.64 71.0644 437.057 74 441.716 77.8636C446.375 81.6894 450.125 86.4053 452.966 92.0114C455.807 97.6174 457.53 104.038 458.136 111.273ZM504.287 67.6364V184H472.923V67.6364H504.287ZM520.267 184V96.7273H551.631V184H520.267ZM535.949 87.6364C531.706 87.6364 528.07 86.2348 525.04 83.4318C522.009 80.6288 520.494 77.2576 520.494 73.3182C520.494 69.3788 522.009 66.0076 525.04 63.2045C528.07 60.4015 531.706 59 535.949 59C540.229 59 543.866 60.4015 546.858 63.2045C549.888 66.0076 551.403 69.3788 551.403 73.3182C551.403 77.2576 549.888 80.6288 546.858 83.4318C543.866 86.2348 540.229 87.6364 535.949 87.6364ZM609.656 185.591C600.187 185.591 592.08 183.716 585.338 179.966C578.596 176.178 573.425 170.913 569.827 164.17C566.228 157.39 564.429 149.53 564.429 140.591C564.429 131.652 566.228 123.811 569.827 117.068C573.425 110.288 578.596 105.023 585.338 101.273C592.08 97.4848 600.187 95.5909 609.656 95.5909C618.217 95.5909 625.622 97.1439 631.872 100.25C638.16 103.318 643.027 107.674 646.474 113.318C649.921 118.924 651.664 125.515 651.702 133.091H622.611C622.194 128.508 620.868 125.023 618.634 122.636C616.437 120.212 613.596 119 610.111 119C607.384 119 604.997 119.795 602.952 121.386C600.906 122.939 599.315 125.307 598.179 128.489C597.043 131.633 596.474 135.591 596.474 140.364C596.474 145.136 597.043 149.114 598.179 152.295C599.315 155.439 600.906 157.807 602.952 159.398C604.997 160.951 607.384 161.727 610.111 161.727C612.421 161.727 614.467 161.197 616.247 160.136C618.027 159.038 619.467 157.447 620.565 155.364C621.702 153.242 622.384 150.667 622.611 147.636H651.702C651.588 155.326 649.827 162.03 646.418 167.75C643.009 173.432 638.179 177.826 631.929 180.932C625.717 184.038 618.293 185.591 609.656 185.591ZM692.824 163.318L693.051 126.045H697.142L718.278 96.7273H753.506L718.051 142.409H709.188L692.824 163.318ZM664.642 184V67.6364H696.006V184H664.642ZM718.506 184L698.506 149.455L718.96 127.182L754.415 184H718.506ZM793.094 67.6364H832.412L859.457 133.545H860.821L887.866 67.6364H927.185V184H896.276V116.727H895.366L869.457 183.091H850.821L824.912 116.273H824.003V184H793.094V67.6364ZM984.429 185.591C975.111 185.591 967.08 183.811 960.338 180.25C953.634 176.652 948.463 171.5 944.827 164.795C941.228 158.053 939.429 149.985 939.429 140.591C939.429 131.576 941.247 123.697 944.884 116.955C948.52 110.212 953.652 104.966 960.281 101.216C966.91 97.4659 974.732 95.5909 983.747 95.5909C990.338 95.5909 996.304 96.6136 1001.64 98.6591C1006.99 100.705 1011.55 103.678 1015.34 107.58C1019.13 111.443 1022.04 116.14 1024.09 121.67C1026.13 127.201 1027.16 133.432 1027.16 140.364V147.636H949.202V130.364H998.293C998.255 127.864 997.611 125.667 996.361 123.773C995.149 121.841 993.501 120.345 991.418 119.284C989.372 118.186 987.043 117.636 984.429 117.636C981.891 117.636 979.562 118.186 977.44 119.284C975.319 120.345 973.615 121.822 972.327 123.716C971.077 125.61 970.414 127.826 970.338 130.364V149C970.338 151.803 970.925 154.303 972.099 156.5C973.274 158.697 974.959 160.42 977.156 161.67C979.353 162.92 982.005 163.545 985.111 163.545C987.27 163.545 989.24 163.242 991.02 162.636C992.838 162.03 994.391 161.159 995.679 160.023C996.967 158.848 997.914 157.447 998.52 155.818H1027.16C1026.17 161.879 1023.84 167.144 1020.17 171.614C1016.49 176.045 1011.63 179.492 1005.57 181.955C999.543 184.379 992.497 185.591 984.429 185.591Z" fill="black"/>
<path d="M141.611 28.6667C161.778 48.3333 190.011 92.4667 141.611 111.667C141.611 112.167 85.6111 87.1667 141.611 28.6667ZM141.611 28.6667C168.278 10.1667 231.311 -9.43332 270.111 60.1667C271.611 60.1667 279.111 94.6667 270.111 115.667C270.111 118.745 253.262 138.673 230.611 168.725M141.611 28.6667C92.1111 -13.3334 40.1111 28.6667 39.1111 28.6667C3.11111 58.6666 9.61111 105.667 12.1111 105.167C13.1969 108.011 14.4539 110.854 15.8316 113.667M230.611 168.725C220.152 182.601 208.457 198.635 196.611 216.167C196.832 215.724 187.749 227.133 172.611 234.917M230.611 168.725C221.611 184.873 197.411 220.718 172.611 234.917M172.611 234.917C153.547 244.721 124.883 248.774 93.1111 216.167C91.6111 216.167 57.6111 174.667 46.1111 159.167C47.8716 159.754 39.4734 150.526 30.1111 137.243C27.7821 133.939 25.3935 130.384 23.0867 126.667M15.8316 113.667C18.0136 118.121 20.4987 122.496 23.0867 126.667M15.8316 113.667L23.0867 126.667" stroke="black" stroke-width="20"/>
</svg>
